<svg xmlns="http://www.w3.org/2000/svg" viewBox="0 0 100 100" fill="currentColor">
  <!-- Minimalist Geometric Flower Logo (Vercel-style blossom silhouette) -->
  <path d="M50 5 C55 25, 55 35, 50 45 C45 35, 45 25, 50 5 Z" />
  <path d="M50 95 C45 75, 45 65, 50 55 C55 65, 55 75, 50 95 Z" />
  <path d="M95 50 C75 45, 65 45, 55 50 C65 55, 75 55, 95 50 Z" />
  <path d="M5 50 C25 55, 35 55, 45 50 C35 45, 25 45, 5 50 Z" />
  
  <path d="M81.82 18.18 C65.91 30.05, 58.84 37.12, 53.54 46.46 C62.88 41.16, 69.95 34.09, 81.82 18.18 Z" />
  <path d="M18.18 81.82 C34.09 69.95, 41.16 62.88, 46.46 53.54 C37.12 58.84, 30.05 65.91, 18.18 81.82 Z" />
  <path d="M81.82 81.82 C69.95 65.91, 62.88 58.84, 53.54 53.54 C58.84 62.88, 65.91 69.95, 81.82 81.82 Z" />
  <path d="M18.18 18.18 C30.05 34.09, 37.12 41.16, 46.46 46.46 C41.16 37.12, 34.09 30.05, 18.18 18.18 Z" />

  <circle cx="50" cy="50" r="5" />
</svg>
